Coordinates
version=1
nRows=6
nColumns=63
inDegrees=yes

Units are S.I. units (second, meters, Newtons, ...)
If the header above contains a line with 'inDegrees', this indicates whether rotational values are in degrees (yes) or radians (no).

endheader
time	pelvis_tilt	pelvis_list	pelvis_rotation	pelvis_tx	pelvis_ty	pelvis_tz	hip_flexion_r	hip_adduction_r	hip_rotation_r	knee_angle_r	knee_angle_r_beta	ankle_angle_r	subtalar_angle_r	mtp_angle_r	hip_flexion_l	hip_adduction_l	hip_rotation_l	knee_angle_l	knee_angle_l_beta	ankle_angle_l	subtalar_angle_l	mtp_angle_l	L5_S1_Flex_Ext	L5_S1_Lat_Bending	L5_S1_axial_rotation	L4_L5_Flex_Ext	L4_L5_Lat_Bending	L4_L5_axial_rotation	L3_L4_Flex_Ext	L3_L4_Lat_Bending	L3_L4_axial_rotation	L2_L3_Flex_Ext	L2_L3_Lat_Bending	L2_L3_axial_rotation	L1_L2_Flex_Ext	L1_L2_Lat_Bending	L1_L2_axial_rotation	L1_T12_Flex_Ext	L1_T12_Lat_Bending	L1_T12_axial_rotation	Abs_r3	Abs_r2	Abs_r1	Abs_t1	Abs_t2	neck_flexion	neck_bending	neck_rotation	arm_flex_r	arm_add_r	arm_rot_r	elbow_flex_r	pro_sup_r	wrist_flex_r	wrist_dev_r	arm_flex_l	arm_add_l	arm_rot_l	elbow_flex_l	pro_sup_l	wrist_flex_l	wrist_dev_l
1.100000	1.515599	-1.173259	101.125370	0.217576	0.987277	0.528026	4.258378	0.780766	-16.020148	12.307278	0.214803	20.396900	7.047084	0.000000	5.780146	-2.486599	-6.093814	11.246315	0.196285	24.951078	9.186852	0.000000	-0.018648	-0.672145	2.791749	-0.034630	-0.893952	2.966233	-0.030636	-1.634252	2.966233	-0.021312	-1.634252	2.442780	-0.017316	-1.370637	2.268296	-0.010655	-1.041152	2.093811	-0.133198	-7.603434	15.526868	0.000000	0.000000	24.013194	-9.556419	-24.863135	27.397622	-41.716481	18.169992	15.213934	19.730548	-9.325552	-0.598443	4.366512	-32.970132	-85.317547	90.524160	75.383004	-25.828692	-6.268775
1.116667	1.588087	-1.053148	101.023579	0.217619	0.987717	0.528537	4.435920	0.844225	-15.480514	12.677353	0.221262	20.459363	6.721150	0.000000	5.592004	-2.561477	-6.221890	11.068643	0.193184	24.831123	9.121082	0.000000	-0.033553	-0.663828	2.943034	-0.062312	-0.882892	3.126973	-0.055125	-1.614032	3.126973	-0.038348	-1.614032	2.575154	-0.031158	-1.353679	2.391215	-0.019172	-1.028270	2.207275	-0.239668	-7.509360	16.368270	0.000000	0.000000	23.567504	-9.774582	-25.381245	28.212369	-42.484152	19.535650	15.068597	17.121828	-9.270859	-0.658471	5.604865	-30.545783	-84.744653	93.346051	76.597428	-26.583643	-5.615347
1.133333	1.680025	-0.965366	100.809043	0.217691	0.988071	0.529206	4.644510	0.928538	-14.861183	12.993738	0.226784	20.585186	6.479268	0.000000	5.410953	-2.660253	-6.578437	10.850626	0.189379	24.673564	9.201125	0.000000	-0.044973	-0.643704	3.054483	-0.083519	-0.856127	3.245389	-0.073886	-1.565103	3.245389	-0.051399	-1.565103	2.672673	-0.041762	-1.312642	2.481768	-0.025697	-0.997098	2.290863	-0.321236	-7.281711	16.988121	0.000000	0.000000	23.125277	-9.752925	-25.350742	29.231968	-42.601283	19.971964	15.450375	15.866729	-9.368174	-0.508201	6.753449	-27.616920	-82.544902	96.164368	78.199874	-27.988811	-5.299521
1.150000	1.778118	-0.908704	100.492297	0.217794	0.988362	0.530032	4.869530	1.014359	-14.235475	13.244728	0.231164	20.767785	6.382533	0.000000	5.248104	-2.762107	-7.035835	10.610551	0.185189	24.497470	9.277898	0.000000	-0.053973	-0.614068	3.125877	-0.100233	-0.816711	3.321244	-0.088672	-1.493045	3.321244	-0.061686	-1.493045	2.735142	-0.050119	-1.252208	2.539775	-0.030840	-0.951191	2.344408	-0.385524	-6.946461	17.385190	0.000000	0.000000	22.712563	-9.515684	-24.869168	30.416362	-41.967486	19.191709	16.338491	16.375670	-9.596933	-0.015805	7.883745	-24.499754	-77.765205	98.639005	79.876974	-33.347750	-6.931354
1.166667	1.872829	-0.895712	100.011636	0.218040	0.988560	0.530933	5.115160	1.104598	-13.534081	13.420895	0.234239	20.995885	6.403980	0.000000	5.099976	-2.862827	-7.684236	10.343457	0.180527	24.344731	9.407951	0.000000	-0.058656	-0.576129	3.156265	-0.108930	-0.766251	3.353532	-0.096366	-1.400799	3.353532	-0.067038	-1.400799	2.761732	-0.054468	-1.174841	2.564465	-0.033516	-0.892423	2.367199	-0.418975	-6.517282	17.554200	0.000000	0.000000	22.395691	-9.016093	-23.859356	31.854381	-40.529457	17.732966	17.506367	18.231603	-9.835319	0.763678	8.723474	-21.322115	-71.289433	101.021621	81.186952	-37.976438	-8.688422
1.183333	1.953755	-0.930735	99.357443	0.218437	0.988664	0.531862	5.372868	1.186564	-12.805364	13.513883	0.235862	21.261809	6.603401	0.000000	4.969463	-2.954446	-8.539901	10.057793	0.175542	24.245801	9.617974	0.000000	-0.058370	-0.532139	3.151512	-0.108398	-0.707744	3.348482	-0.095895	-1.293842	3.348482	-0.066711	-1.293842	2.757573	-0.054202	-1.085137	2.560604	-0.033352	-0.824283	2.363634	-0.416928	-6.019657	17.527766	0.000000	0.000000	22.214795	-8.303642	-22.451361	33.538102	-38.304357	15.812297	18.805605	21.279221	-9.969005	1.825737	9.431050	-18.048498	-63.481023	103.014878	82.891947	-40.710863	-10.154418
